<mxfile host="Electron" modified="2024-02-10T22:09:23.163Z" agent="Mozilla/5.0 (Windows NT 10.0; Win64; x64) AppleWebKit/537.36 (KHTML, like Gecko) draw.io/21.6.8 Chrome/114.0.5735.289 Electron/25.5.0 Safari/537.36" etag="xi5o2xVYOep4KGIRFu78" version="21.6.8" type="device">
  <diagram name="Page-1" id="XqMH33ITdPXYBQDwjfYb">
    <mxGraphModel dx="790" dy="783" grid="1" gridSize="10" guides="1" tooltips="1" connect="1" arrows="1" fold="1" page="1" pageScale="1" pageWidth="827" pageHeight="1169" math="0" shadow="0">
      <root>
        <mxCell id="0" />
        <mxCell id="1" parent="0" />
        <mxCell id="BCfwZxCEeiZTPiEJslTI-27" value="" style="group" vertex="1" connectable="0" parent="1">
          <mxGeometry x="66.66" y="30" width="423.34" height="230" as="geometry" />
        </mxCell>
        <mxCell id="BCfwZxCEeiZTPiEJslTI-2" value="&lt;h3 style=&quot;padding: 0px 0px 10px; margin: 0px; box-sizing: border-box; font-family: EuclidCircularA-Medium; font-size: 14px; line-height: 20px; color: rgb(37, 38, 94); font-weight: 500; text-align: start;&quot; class=&quot;table-name&quot;&gt;Platoon&lt;/h3&gt;" style="rounded=0;whiteSpace=wrap;html=1;" vertex="1" parent="BCfwZxCEeiZTPiEJslTI-27">
          <mxGeometry x="296.10711396475455" y="17.58810733110765" width="74.02588875694875" height="35.17621466221531" as="geometry" />
        </mxCell>
        <mxCell id="BCfwZxCEeiZTPiEJslTI-6" value="category" style="ellipse;whiteSpace=wrap;html=1;strokeWidth=3;" vertex="1" parent="BCfwZxCEeiZTPiEJslTI-27">
          <mxGeometry x="252.155132249556" y="66.9724864230864" width="74.02588875694875" height="35.17621466221531" as="geometry" />
        </mxCell>
        <mxCell id="BCfwZxCEeiZTPiEJslTI-8" value="" style="endArrow=none;html=1;rounded=0;entryX=0.5;entryY=1;entryDx=0;entryDy=0;exitX=0.5;exitY=0;exitDx=0;exitDy=0;" edge="1" parent="BCfwZxCEeiZTPiEJslTI-27" source="BCfwZxCEeiZTPiEJslTI-6" target="BCfwZxCEeiZTPiEJslTI-2">
          <mxGeometry width="50" height="50" relative="1" as="geometry">
            <mxPoint x="305.3603500593731" y="193.4691806421842" as="sourcePoint" />
            <mxPoint x="351.626530532466" y="149.49891231441504" as="targetPoint" />
          </mxGeometry>
        </mxCell>
        <mxCell id="BCfwZxCEeiZTPiEJslTI-12" value="" style="endArrow=none;html=1;rounded=0;entryX=0;entryY=0.5;entryDx=0;entryDy=0;" edge="1" parent="BCfwZxCEeiZTPiEJslTI-27" target="BCfwZxCEeiZTPiEJslTI-2">
          <mxGeometry width="50" height="50" relative="1" as="geometry">
            <mxPoint x="166.56180864009417" y="35.1762146622153" as="sourcePoint" />
            <mxPoint x="148.055336450857" y="149.49891231441504" as="targetPoint" />
          </mxGeometry>
        </mxCell>
        <mxCell id="BCfwZxCEeiZTPiEJslTI-13" value="שייך" style="rhombus;whiteSpace=wrap;html=1;" vertex="1" parent="BCfwZxCEeiZTPiEJslTI-27">
          <mxGeometry x="46.26973941005243" width="120.29206923004172" height="70.35242932443062" as="geometry" />
        </mxCell>
        <mxCell id="BCfwZxCEeiZTPiEJslTI-14" value="" style="endArrow=none;html=1;rounded=0;entryX=0.5;entryY=1;entryDx=0;entryDy=0;" edge="1" parent="BCfwZxCEeiZTPiEJslTI-27" target="BCfwZxCEeiZTPiEJslTI-13">
          <mxGeometry width="50" height="50" relative="1" as="geometry">
            <mxPoint x="106.41577402507328" y="123.11675131775358" as="sourcePoint" />
            <mxPoint x="166.56180864009417" y="149.49891231441504" as="targetPoint" />
          </mxGeometry>
        </mxCell>
        <mxCell id="BCfwZxCEeiZTPiEJslTI-15" value="&lt;h3 style=&quot;padding: 0px 0px 10px; margin: 0px; box-sizing: border-box; font-family: EuclidCircularA-Medium; font-size: 14px; line-height: 20px; color: rgb(37, 38, 94); font-weight: 500; text-align: start;&quot; class=&quot;table-name&quot;&gt;Book&lt;/h3&gt;" style="rounded=0;whiteSpace=wrap;html=1;" vertex="1" parent="BCfwZxCEeiZTPiEJslTI-27">
          <mxGeometry x="64.77621159928964" y="123.11675131775358" width="92.53236094618596" height="35.17621466221531" as="geometry" />
        </mxCell>
        <mxCell id="BCfwZxCEeiZTPiEJslTI-16" value="Copies" style="ellipse;whiteSpace=wrap;html=1;" vertex="1" parent="BCfwZxCEeiZTPiEJslTI-27">
          <mxGeometry x="157.30697102384377" y="176.5578238053067" width="74.02588875694875" height="35.17621466221531" as="geometry" />
        </mxCell>
        <mxCell id="BCfwZxCEeiZTPiEJslTI-17" value="category" style="ellipse;whiteSpace=wrap;html=1;" vertex="1" parent="BCfwZxCEeiZTPiEJslTI-27">
          <mxGeometry x="74.02766822542849" y="194.8237853377847" width="74.02588875694875" height="35.17621466221531" as="geometry" />
        </mxCell>
        <mxCell id="BCfwZxCEeiZTPiEJslTI-18" value="&lt;p style=&quot;line-height: 160%;&quot;&gt;Name&lt;br&gt;&lt;/p&gt;" style="ellipse;whiteSpace=wrap;html=1;strokeWidth=4;" vertex="1" parent="BCfwZxCEeiZTPiEJslTI-27">
          <mxGeometry y="176.5565420808858" width="74.02588875694875" height="35.17621466221531" as="geometry" />
        </mxCell>
        <mxCell id="BCfwZxCEeiZTPiEJslTI-19" value="" style="endArrow=none;html=1;rounded=0;entryX=0.5;entryY=1;entryDx=0;entryDy=0;exitX=0.5;exitY=0;exitDx=0;exitDy=0;" edge="1" parent="BCfwZxCEeiZTPiEJslTI-27" source="BCfwZxCEeiZTPiEJslTI-17" target="BCfwZxCEeiZTPiEJslTI-15">
          <mxGeometry width="50" height="50" relative="1" as="geometry">
            <mxPoint x="101.78915597776401" y="193.4691806421842" as="sourcePoint" />
            <mxPoint x="148.055336450857" y="149.49891231441504" as="targetPoint" />
          </mxGeometry>
        </mxCell>
        <mxCell id="BCfwZxCEeiZTPiEJslTI-20" value="" style="endArrow=none;html=1;rounded=0;entryX=0.5;entryY=1;entryDx=0;entryDy=0;" edge="1" parent="BCfwZxCEeiZTPiEJslTI-27" source="BCfwZxCEeiZTPiEJslTI-18" target="BCfwZxCEeiZTPiEJslTI-15">
          <mxGeometry width="50" height="50" relative="1" as="geometry">
            <mxPoint x="101.78915597776401" y="193.4691806421842" as="sourcePoint" />
            <mxPoint x="148.055336450857" y="149.49891231441504" as="targetPoint" />
          </mxGeometry>
        </mxCell>
        <mxCell id="BCfwZxCEeiZTPiEJslTI-21" value="" style="endArrow=none;html=1;rounded=0;entryX=0.5;entryY=1;entryDx=0;entryDy=0;" edge="1" parent="BCfwZxCEeiZTPiEJslTI-27" source="BCfwZxCEeiZTPiEJslTI-16" target="BCfwZxCEeiZTPiEJslTI-15">
          <mxGeometry width="50" height="50" relative="1" as="geometry">
            <mxPoint x="101.78915597776401" y="193.4691806421842" as="sourcePoint" />
            <mxPoint x="148.055336450857" y="149.49891231441504" as="targetPoint" />
          </mxGeometry>
        </mxCell>
        <mxCell id="BCfwZxCEeiZTPiEJslTI-25" value="" style="endArrow=none;html=1;rounded=0;entryX=0.5;entryY=1;entryDx=0;entryDy=0;exitX=1;exitY=0;exitDx=0;exitDy=0;" edge="1" source="BCfwZxCEeiZTPiEJslTI-26" parent="BCfwZxCEeiZTPiEJslTI-27" target="BCfwZxCEeiZTPiEJslTI-2">
          <mxGeometry width="50" height="50" relative="1" as="geometry">
            <mxPoint x="407.1482604092012" y="201.5847392441572" as="sourcePoint" />
            <mxPoint x="435.1392995954225" y="61.08282029527031" as="targetPoint" />
          </mxGeometry>
        </mxCell>
        <mxCell id="BCfwZxCEeiZTPiEJslTI-26" value="&lt;p style=&quot;line-height: 0%;&quot;&gt;size&lt;/p&gt;" style="ellipse;whiteSpace=wrap;html=1;strokeWidth=1;" vertex="1" parent="BCfwZxCEeiZTPiEJslTI-27">
          <mxGeometry x="349.3141112430513" y="66.9724864230864" width="74.02588875694875" height="35.17621466221531" as="geometry" />
        </mxCell>
        <mxCell id="BCfwZxCEeiZTPiEJslTI-47" value="" style="group" vertex="1" connectable="0" parent="1">
          <mxGeometry x="39.63999999999999" y="300" width="477.3700000000001" height="230" as="geometry" />
        </mxCell>
        <mxCell id="BCfwZxCEeiZTPiEJslTI-28" value="" style="group" vertex="1" connectable="0" parent="BCfwZxCEeiZTPiEJslTI-47">
          <mxGeometry width="423.34" height="230" as="geometry" />
        </mxCell>
        <mxCell id="BCfwZxCEeiZTPiEJslTI-29" value="&lt;h3 style=&quot;padding: 0px 0px 10px; margin: 0px; box-sizing: border-box; font-family: EuclidCircularA-Medium; font-size: 14px; line-height: 20px; color: rgb(37, 38, 94); font-weight: 500; text-align: start;&quot; class=&quot;table-name&quot;&gt;Client&lt;/h3&gt;" style="rounded=0;whiteSpace=wrap;html=1;" vertex="1" parent="BCfwZxCEeiZTPiEJslTI-28">
          <mxGeometry x="343.33711396475456" y="17.58810733110765" width="74.02588875694875" height="35.17621466221531" as="geometry" />
        </mxCell>
        <mxCell id="BCfwZxCEeiZTPiEJslTI-30" value="ID" style="ellipse;whiteSpace=wrap;html=1;strokeWidth=3;" vertex="1" parent="BCfwZxCEeiZTPiEJslTI-28">
          <mxGeometry x="293.335132249556" y="87.9424864230864" width="74.02588875694875" height="35.17621466221531" as="geometry" />
        </mxCell>
        <mxCell id="BCfwZxCEeiZTPiEJslTI-31" value="" style="endArrow=none;html=1;rounded=0;entryX=0.5;entryY=1;entryDx=0;entryDy=0;exitX=0.5;exitY=0;exitDx=0;exitDy=0;" edge="1" parent="BCfwZxCEeiZTPiEJslTI-28" source="BCfwZxCEeiZTPiEJslTI-30" target="BCfwZxCEeiZTPiEJslTI-29">
          <mxGeometry width="50" height="50" relative="1" as="geometry">
            <mxPoint x="305.3603500593731" y="193.4691806421842" as="sourcePoint" />
            <mxPoint x="351.626530532466" y="149.49891231441504" as="targetPoint" />
          </mxGeometry>
        </mxCell>
        <mxCell id="BCfwZxCEeiZTPiEJslTI-32" value="" style="endArrow=none;html=1;rounded=0;entryX=0;entryY=0.5;entryDx=0;entryDy=0;" edge="1" parent="BCfwZxCEeiZTPiEJslTI-28" target="BCfwZxCEeiZTPiEJslTI-29">
          <mxGeometry width="50" height="50" relative="1" as="geometry">
            <mxPoint x="166.56180864009417" y="35.1762146622153" as="sourcePoint" />
            <mxPoint x="148.055336450857" y="149.49891231441504" as="targetPoint" />
          </mxGeometry>
        </mxCell>
        <mxCell id="BCfwZxCEeiZTPiEJslTI-33" value="שייך" style="rhombus;whiteSpace=wrap;html=1;" vertex="1" parent="BCfwZxCEeiZTPiEJslTI-28">
          <mxGeometry x="46.26973941005243" width="120.29206923004172" height="70.35242932443062" as="geometry" />
        </mxCell>
        <mxCell id="BCfwZxCEeiZTPiEJslTI-34" value="" style="endArrow=none;html=1;rounded=0;entryX=0.5;entryY=1;entryDx=0;entryDy=0;" edge="1" parent="BCfwZxCEeiZTPiEJslTI-28" target="BCfwZxCEeiZTPiEJslTI-33">
          <mxGeometry width="50" height="50" relative="1" as="geometry">
            <mxPoint x="106.41577402507328" y="123.11675131775358" as="sourcePoint" />
            <mxPoint x="166.56180864009417" y="149.49891231441504" as="targetPoint" />
          </mxGeometry>
        </mxCell>
        <mxCell id="BCfwZxCEeiZTPiEJslTI-35" value="&lt;h3 style=&quot;padding: 0px 0px 10px; margin: 0px; box-sizing: border-box; font-family: EuclidCircularA-Medium; font-size: 14px; line-height: 20px; color: rgb(37, 38, 94); font-weight: 500; text-align: start;&quot; class=&quot;table-name&quot;&gt;Transactions_table&lt;/h3&gt;" style="rounded=0;whiteSpace=wrap;html=1;" vertex="1" parent="BCfwZxCEeiZTPiEJslTI-28">
          <mxGeometry x="64.78" y="123.12" width="115.22" height="35.18" as="geometry" />
        </mxCell>
        <mxCell id="BCfwZxCEeiZTPiEJslTI-36" value="PurchaseID" style="ellipse;whiteSpace=wrap;html=1;" vertex="1" parent="BCfwZxCEeiZTPiEJslTI-28">
          <mxGeometry x="157.30697102384377" y="176.5578238053067" width="74.02588875694875" height="35.17621466221531" as="geometry" />
        </mxCell>
        <mxCell id="BCfwZxCEeiZTPiEJslTI-37" value="Product_Name" style="ellipse;whiteSpace=wrap;html=1;" vertex="1" parent="BCfwZxCEeiZTPiEJslTI-28">
          <mxGeometry x="63.06" y="194.82" width="95.97" height="35.18" as="geometry" />
        </mxCell>
        <mxCell id="BCfwZxCEeiZTPiEJslTI-38" value="&lt;p style=&quot;line-height: 160%;&quot;&gt;CustomerID&lt;br&gt;&lt;/p&gt;" style="ellipse;whiteSpace=wrap;html=1;strokeWidth=4;" vertex="1" parent="BCfwZxCEeiZTPiEJslTI-28">
          <mxGeometry y="176.5565420808858" width="74.02588875694875" height="35.17621466221531" as="geometry" />
        </mxCell>
        <mxCell id="BCfwZxCEeiZTPiEJslTI-39" value="" style="endArrow=none;html=1;rounded=0;entryX=0.5;entryY=1;entryDx=0;entryDy=0;exitX=0.5;exitY=0;exitDx=0;exitDy=0;" edge="1" parent="BCfwZxCEeiZTPiEJslTI-28" source="BCfwZxCEeiZTPiEJslTI-37" target="BCfwZxCEeiZTPiEJslTI-35">
          <mxGeometry width="50" height="50" relative="1" as="geometry">
            <mxPoint x="101.78915597776401" y="193.4691806421842" as="sourcePoint" />
            <mxPoint x="148.055336450857" y="149.49891231441504" as="targetPoint" />
          </mxGeometry>
        </mxCell>
        <mxCell id="BCfwZxCEeiZTPiEJslTI-40" value="" style="endArrow=none;html=1;rounded=0;entryX=0.5;entryY=1;entryDx=0;entryDy=0;" edge="1" parent="BCfwZxCEeiZTPiEJslTI-28" source="BCfwZxCEeiZTPiEJslTI-38" target="BCfwZxCEeiZTPiEJslTI-35">
          <mxGeometry width="50" height="50" relative="1" as="geometry">
            <mxPoint x="101.78915597776401" y="193.4691806421842" as="sourcePoint" />
            <mxPoint x="148.055336450857" y="149.49891231441504" as="targetPoint" />
          </mxGeometry>
        </mxCell>
        <mxCell id="BCfwZxCEeiZTPiEJslTI-41" value="" style="endArrow=none;html=1;rounded=0;entryX=0.5;entryY=1;entryDx=0;entryDy=0;" edge="1" parent="BCfwZxCEeiZTPiEJslTI-28" source="BCfwZxCEeiZTPiEJslTI-36" target="BCfwZxCEeiZTPiEJslTI-35">
          <mxGeometry width="50" height="50" relative="1" as="geometry">
            <mxPoint x="101.78915597776401" y="193.4691806421842" as="sourcePoint" />
            <mxPoint x="148.055336450857" y="149.49891231441504" as="targetPoint" />
          </mxGeometry>
        </mxCell>
        <mxCell id="BCfwZxCEeiZTPiEJslTI-42" value="" style="endArrow=none;html=1;rounded=0;entryX=0.5;entryY=1;entryDx=0;entryDy=0;exitX=0.5;exitY=0;exitDx=0;exitDy=0;" edge="1" parent="BCfwZxCEeiZTPiEJslTI-28" source="BCfwZxCEeiZTPiEJslTI-43" target="BCfwZxCEeiZTPiEJslTI-29">
          <mxGeometry width="50" height="50" relative="1" as="geometry">
            <mxPoint x="407.1482604092012" y="201.5847392441572" as="sourcePoint" />
            <mxPoint x="435.1392995954225" y="61.08282029527031" as="targetPoint" />
          </mxGeometry>
        </mxCell>
        <mxCell id="BCfwZxCEeiZTPiEJslTI-43" value="&lt;p style=&quot;line-height: 0%;&quot;&gt;Name&lt;br&gt;&lt;/p&gt;" style="ellipse;whiteSpace=wrap;html=1;strokeWidth=1;" vertex="1" parent="BCfwZxCEeiZTPiEJslTI-28">
          <mxGeometry x="349.3141112430513" y="123.1224864230864" width="74.02588875694875" height="35.17621466221531" as="geometry" />
        </mxCell>
        <mxCell id="BCfwZxCEeiZTPiEJslTI-44" value="&lt;p style=&quot;line-height: 0%;&quot;&gt;age&lt;br&gt;&lt;/p&gt;" style="ellipse;whiteSpace=wrap;html=1;strokeWidth=1;" vertex="1" parent="BCfwZxCEeiZTPiEJslTI-47">
          <mxGeometry x="403.3441112430513" y="90.00248642308634" width="74.02588875694875" height="35.17621466221531" as="geometry" />
        </mxCell>
        <mxCell id="BCfwZxCEeiZTPiEJslTI-45" value="" style="endArrow=none;html=1;rounded=0;entryX=0.5;entryY=1;entryDx=0;entryDy=0;exitX=0.5;exitY=0;exitDx=0;exitDy=0;" edge="1" source="BCfwZxCEeiZTPiEJslTI-44" parent="BCfwZxCEeiZTPiEJslTI-47" target="BCfwZxCEeiZTPiEJslTI-29">
          <mxGeometry width="50" height="50" relative="1" as="geometry">
            <mxPoint x="497.3682604092013" y="201.58473924415716" as="sourcePoint" />
            <mxPoint x="423.22" y="53" as="targetPoint" />
          </mxGeometry>
        </mxCell>
      </root>
    </mxGraphModel>
  </diagram>
</mxfile>
